# xmcd
#
# Track frame offsets:
#	150
#	17934
#	30850
#	41785
#	59200
#	75151
#	95770
#	115459
#	129901
#	152232
#	166867
#	182295
#	202999
#	218286
#	231053
#	255619
#	267000
#	279736
#	289246
#	309286
#
# Disc length: 4414 seconds
#
# Revision: 0
# Processed by: cddbd v1.5.2PL0 Copyright (c) Steve Scherf et al.
# Submitted via: dBpowerAMP V4.0
#
DISCID=0a113c14
DTITLE=Various Artist - Spécial Alligator Records
DYEAR=1900
DGENRE=Blues
TTITLE0=Jimmy Johnson - Serves me right to suffer
TTITLE1=Charlie Musselwhite - Stingaree
TTITLE2=Lazy Lester - I done got over it
TTITLE3=Holmes Brothers - We meet, we part, we remember
TTITLE4=Hound Dog Taylor - Gonna send you back to Georgia
TTITLE5=Delbert McClinton - I've Ggot dreams
TTITLE6=Professor Longhair - Her mind is gone
TTITLE7=Big Walter Horton - Little Boy Blue
TTITLE8=Albert Collins and Johnny Copeland - Black cat bone
TTITLE9=Cephas and Wiggins - Forgiveness
TTITLE10=Son Seals - Look now baby
TTITLE11=Lacy Gibson - Drown in my own tears
TTITLE12=Floy Dixon - Hey bartender
TTITLE13=Queen Sylvia Embry - Tired of being pushed around
TTITLE14=Mavis Staples - God is not sleeping
TTITLE15=Lurrie Bell - Trouble in my way
TTITLE16=Big Moose Walker - Sunnyland blues
TTITLE17=Corey Harris - God don't ever change 
TTITLE18=W.C. Clark - Let it rain
TTITLE19=Fenton Robinson - As the years go passing by
EXTD=Hommage mérité au dernier des grands labels de blues américain, modèle de passion et de pugnacité indispensables à faire vivre la musique...
EXTT0=
EXTT1=
EXTT2=
EXTT3=
EXTT4=
EXTT5=
EXTT6=
EXTT7=
EXTT8=
EXTT9=
EXTT10=
EXTT11=
EXTT12=
EXTT13=
EXTT14=
EXTT15=
EXTT16=
EXTT17=
EXTT18=
EXTT19=
PLAYORDER=
